<?xml version="1.0" encoding="utf-8"?>
<!-- Generator: Adobe Illustrator 26.0.1, SVG Export Plug-In . SVG Version: 6.00 Build 0)  -->
<svg version="1.1" id="Layer_1" xmlns="http://www.w3.org/2000/svg" xmlns:xlink="http://www.w3.org/1999/xlink" x="0px" y="0px"
	 viewBox="0 0 1366 768" style="enable-background:new 0 0 1366 768;" xml:space="preserve">
<style type="text/css">
	.st0{fill:url(#SVGID_1_);}
	.st1{fill:url(#SVGID_00000077317644892468360770000015783125193235471011_);}
	.st2{fill:url(#SVGID_00000001624509590347506870000001782604911115674275_);}
	.st3{fill:url(#SVGID_00000147181959522351933450000008316019302810796181_);}
	.st4{fill:url(#SVGID_00000105399059101005635970000002320382780939106714_);}
	.st5{fill:url(#SVGID_00000095340274775432248390000015949360940944082360_);}
	.st6{fill:url(#SVGID_00000058586173349626131780000005159170347676859323_);}
	.st7{fill:url(#SVGID_00000090991651546373080450000005055960644556903319_);}
	.st8{fill:url(#SVGID_00000149367213044508891930000008850076352484230329_);}
	.st9{fill:url(#SVGID_00000000212542407634476360000016042633514661773748_);}
	.st10{fill:url(#SVGID_00000008844363556947203800000016511372774347789972_);}
</style>
<g id="Layer_2_00000062913866112698179050000007455301128217149608_">
</g>
<linearGradient id="SVGID_1_" gradientUnits="userSpaceOnUse" x1="285.8869" y1="56.4201" x2="1542.9554" y2="880.2823" gradientTransform="matrix(1 0 0 -1 0 770)">
	<stop  offset="0.1429" style="stop-color:#3CC6F2"/>
	<stop  offset="0.2583" style="stop-color:#3DC6F1"/>
	<stop  offset="0.2998" style="stop-color:#3FC6EA"/>
	<stop  offset="0.3182" style="stop-color:#42C6E4"/>
	<stop  offset="0.379" style="stop-color:#4AC6D0"/>
	<stop  offset="0.573" style="stop-color:#64C493"/>
	<stop  offset="0.6171" style="stop-color:#69C486"/>
	<stop  offset="0.7113" style="stop-color:#72C371"/>
	<stop  offset="0.9362" style="stop-color:#74C36E"/>
	<stop  offset="1" style="stop-color:#74C36D"/>
</linearGradient>
<path class="st0" d="M1367,1.2c1.9,5,1.7,129.4,0,134.9c0,0,0,182.4,0,547.2c0,5.7,0,11.4,0,17.1c0,12.7,0,12.7,0,12.8
	c-0.2,12.8-9.6,30.3-24,40.7c-16.3,11.8-33.3,10.2-40,9.6c-5.3-0.5-20.2-2.5-34-13.9c-6.2-5.1-12.3-10.2-14-19.3
	c-1.6-9,1.7-18.8,8-24.6c10.1-9.4,24.6-5.5,29-4.3c13.2,3.6,13.4,11,27,15c3.7,1.1,18.3,5.3,29-3.2c6.2-5,12.9-15.8,9-22.5
	c-2.8-4.7-10.1-6.4-18-4.3c-5.2-0.1-49.5-2-78-36.4c-2.7-3.3-9.2-15.1-22-38.5c-20.1-36.7-18.8-37.8-24-42.8
	c-20.5-19.8-59.8-21.9-84-4.3c-14.7,10.7-12,20.1-31,46c-9.6,13.1-27.2,37.1-54,50.3c-34.7,17.1-83.1,15.2-110-12.8
	c-8.2-8.6-21-26.5-16-38.5c6.5-15.6,35.8-4.7,53-21.4c19.4-18.8,15.6-65,2-95.3c-34.4-76.5-156.2-106.2-244-71.7
	c-22.4,8.8-18.5,13.1-45,24.6c-109.7,47.9-193,3.2-193,3.2c-15.4-8.2-57.2-30.7-78-80.3c-6.6-15.6-22.8-54.4-12-93.5
	c3.6-12.9,9.7-24.7,8-43.6c-0.5-4.8-2.4-24.8-16-38.6c-4.8-4.9-11-8.7-40-15c-31.6-6.9-39.7-5.7-49.2-8.4c-2.7-0.8-5.3-1.8-8.8-3.4
	c-12.7-5.7-29.4-13.2-42.3-29.3c-5.9-7.4-8.9-14-11.5-19.9c-8.6-19.3-9.5-36.2-10-46c-0.7-14.5,1.1-24.5,1.5-26.8
	c0.7-4,2.2-11.8,6.1-20.7c0,0,5.5-12.5,15.3-23.4c1.8-2,398.7-4,717.4-3.6C1187.3-3.4,1365.8-2,1367,1.2z"/>
<linearGradient id="SVGID_00000018955098476571556280000005867491517727582651_" gradientUnits="userSpaceOnUse" x1="665.3141" y1="2304.1523" x2="922.676" y2="1911.9821" gradientTransform="matrix(1 0 0 1 0 -1666)">
	<stop  offset="0.1955" style="stop-color:#6DE3EE"/>
	<stop  offset="0.2687" style="stop-color:#6DE1E7"/>
	<stop  offset="0.3764" style="stop-color:#6EDCD3"/>
	<stop  offset="0.5054" style="stop-color:#70D4B3"/>
	<stop  offset="0.6498" style="stop-color:#73C986"/>
	<stop  offset="0.7211" style="stop-color:#74C36D"/>
</linearGradient>
<path style="fill:url(#SVGID_00000018955098476571556280000005867491517727582651_);" d="M714.6,638.6c18.4,2.3,31.7-6.7,35-9.2
	c18.5-13.7,18.5-36.9,18.4-49.5c0-13.2-3-13.3-6.8-41.3c-2.6-19-3.9-28.5-2.9-36.7c2.4-20.6,15.8-43.1,36.4-50.8
	c9.1-3.4,14.3-5.3,22-5.1c7.6,0.2,13.7,2.4,19.4-0.9c0.9-0.5,4.5-2.6,4.6-6.1c0.2-3.9-4.2-7.2-6-8.6c-12.4-9.5-38.9-7.1-43-6.7
	c-18.5,1.8-37.8,3.7-59.6,15.1c-26.6,14-39.1,33-48.5,47.2c-8.4,12.8-27.3,47.2-22.1,87.1c3.2,24.8,7.9,33.1,10,36.2
	C675.8,615,690.1,635.6,714.6,638.6z"/>
<linearGradient id="SVGID_00000084493093035581788220000009129924758941883564_" gradientUnits="userSpaceOnUse" x1="851.0153" y1="-1327.4822" x2="870.0179" y2="-1327.4822" gradientTransform="matrix(1 0 0 -1 0 -896)">
	<stop  offset="1.325964e-07" style="stop-color:#6DE3EE"/>
	<stop  offset="0.9631" style="stop-color:#74C36D"/>
</linearGradient>
<path style="fill:url(#SVGID_00000084493093035581788220000009129924758941883564_);" d="M851.7,432.6c-0.2-0.4-1.7-3.4,0.5-6.3
	c1.9-2.5,5.6-3.5,8.6-3.3c4.3,0.3,8.1,3.1,9,6.9c0.1,0.3,1.2,4.5-2.7,7.6c-0.3,0.3-4.8,3.6-9.9,2.1
	C853.7,438.6,851.5,435.7,851.7,432.6z"/>
<linearGradient id="SVGID_00000031171732149325885120000002127596388105661334_" gradientUnits="userSpaceOnUse" x1="1329" y1="2321" x2="1329" y2="2321" gradientTransform="matrix(1 0 0 1 0 -1666)">
	<stop  offset="0" style="stop-color:#3CC6F3"/>
	<stop  offset="0.1592" style="stop-color:#42C6E4"/>
	<stop  offset="0.4636" style="stop-color:#52C5BE"/>
	<stop  offset="0.8785" style="stop-color:#6CC380"/>
	<stop  offset="1" style="stop-color:#74C36D"/>
</linearGradient>
<path style="fill:url(#SVGID_00000031171732149325885120000002127596388105661334_);" d="M1329,655"/>
<linearGradient id="SVGID_00000146483276485971394590000016692335731051714433_" gradientUnits="userSpaceOnUse" x1="1359" y1="2323" x2="1359" y2="2323" gradientTransform="matrix(1 0 0 1 0 -1666)">
	<stop  offset="0" style="stop-color:#3CC6F3"/>
	<stop  offset="0.1592" style="stop-color:#42C6E4"/>
	<stop  offset="0.4636" style="stop-color:#52C5BE"/>
	<stop  offset="0.8785" style="stop-color:#6CC380"/>
	<stop  offset="1" style="stop-color:#74C36D"/>
</linearGradient>
<path style="fill:url(#SVGID_00000146483276485971394590000016692335731051714433_);" d="M1359,657"/>
<linearGradient id="SVGID_00000041290399319922384620000018382477561036262016_" gradientUnits="userSpaceOnUse" x1="812.7809" y1="1899.218" x2="1347.9298" y2="1592.835" gradientTransform="matrix(1 0 0 1 0 -1666)">
	<stop  offset="2.651929e-07" style="stop-color:#FFFFFF;stop-opacity:0"/>
	<stop  offset="1" style="stop-color:#FFFFFF;stop-opacity:0.2"/>
</linearGradient>
<path style="fill:url(#SVGID_00000041290399319922384620000018382477561036262016_);" d="M1357,162.2c-5.2,9.7-14.5,24.4-30.1,36.5
	c-41.4,32-91.8,18.4-102.3,15.5c-18.1-4.9-35.8-15.8-71.2-37.6c-22.3-13.7-20.4-14.3-39.1-25.4c-28.8-17.1-50.8-30.2-80.2-35.4
	c-21.3-3.8-37.5-1.8-53.2,0c-43.3,5.1-47.3,17.6-86.3,23.2c-23.5,3.4-55.8,8.1-87.3-11.1c-24.9-15.1-37.3-37.8-40.1-43.1
	c-4.1-7.8-12-23.3-13-45.3c-0.7-16,2.5-28.8,5-36.5L1368-1.4v148.2L1357,162.2z"/>
<linearGradient id="SVGID_00000146476005826821817430000006275282855276231049_" gradientUnits="userSpaceOnUse" x1="207.8064" y1="1717.7257" x2="1481.6914" y2="2194.2493" gradientTransform="matrix(1 0 0 1 0 -1666)">
	<stop  offset="0" style="stop-color:#FFFFFF;stop-opacity:0.2"/>
	<stop  offset="1" style="stop-color:#FFFFFF;stop-opacity:0"/>
</linearGradient>
<path style="fill:url(#SVGID_00000146476005826821817430000006275282855276231049_);" d="M271.7,90c19-7.4,48.2-18.7,87.9-15
	c8.1,0.8,40.5,4.4,74.5,25c32.8,20,53.5,47.6,67.3,66c14.2,18.9,20.6,32.1,40.4,49c2.9,2.5,15.2,12.8,34.1,23
	c12.8,6.9,57.6,30.1,117.3,24.7c12.9-1.2,22.5-3.3,28.6-4.7c38.7-8.8,52.9-22.2,85.9-37c10.2-4.6,46.9-20.4,95.2-26
	c7.7-0.9,35.7-3.9,72.4,0c54.4,5.7,93.8,22.9,121.1,35c30.5,13.6,57.6,30.4,111.7,64c17.9,11.1,32.5,20.5,42.4,27
	c22,14.5,40.6,25,53.8,32c9.6,5.1,23.4,12.2,41.4,24c23.6,15.5,27.5,21.5,29,24c7,11.9,4.3,21.3,2.1,48c-1.3,15.9-1.6,36.3-2.1,77
	c-0.5,44.5,2,49.4-3.1,53c-8.7,6.2-28.8,1.1-130.4-75c-39.6-29.7-58.2-45.1-105.5-82c-64.1-49.9-96.7-75.1-119-88
	c-41.1-23.6-88.1-50.7-149-56c-73.1-6.4-152.5,22-218.3,45c-20.3,7.1-53.8,19.7-94.2,12c-31.2-5.9-55-21.8-61-26
	c-26.9-18.6-49.9-47-54.8-53c-11-13.6-28.7-37.7-44.5-36c-2.2,0.2-8.3,1.4-12.4-2c-3.3-2.7-3-6.4-4.1-11
	c-3.5-14.2-17.2-22.5-19.7-24c-5.1-3.1-7.9-3.1-21.7-6c-5.1-1.1-21.4-4.5-33.1-8c-18.2-5.4-29.9-12.5-50.7-25
	c-4.1-2.5-9.7-6-15.5-12c-2.3-2.4-4-4.5-5.2-6c-2.2-1.3-4.7-3.2-5.2-6C225.3,108,263.8,93.1,271.7,90z"/>
<g id="Layer_2_00000139996661843214014000000008257446812326039201_">
</g>
<linearGradient id="SVGID_00000111178276452178878160000010048406270775449218_" gradientUnits="userSpaceOnUse" x1="179" y1="1929" x2="179" y2="1929" gradientTransform="matrix(1 0 0 1 0 -1666)">
	<stop  offset="0" style="stop-color:#FFFFFF;stop-opacity:0.2"/>
	<stop  offset="1" style="stop-color:#FFFFFF;stop-opacity:0"/>
</linearGradient>
<path style="fill:url(#SVGID_00000111178276452178878160000010048406270775449218_);" d="M179,263"/>
<linearGradient id="SVGID_00000181775293724296255410000007373515285959076270_" gradientUnits="userSpaceOnUse" x1="209.1" y1="939.1" x2="209.1" y2="939.1" gradientTransform="matrix(1 0 0 -1 0 770)">
	<stop  offset="0" style="stop-color:#3CC6F3"/>
	<stop  offset="0.2456" style="stop-color:#42C6E4"/>
	<stop  offset="0.5359" style="stop-color:#64C493"/>
	<stop  offset="0.6171" style="stop-color:#69C486"/>
	<stop  offset="0.7113" style="stop-color:#72C371"/>
	<stop  offset="0.9362" style="stop-color:#74C36E"/>
	<stop  offset="1" style="stop-color:#74C36D"/>
</linearGradient>
<path style="fill:url(#SVGID_00000181775293724296255410000007373515285959076270_);" d="M209.1-169.1"/>
<g id="Layer_2_00000137816940676238220550000003140875730874438281_">
</g>
<linearGradient id="SVGID_00000076594353346073064590000014870071289431577003_" gradientUnits="userSpaceOnUse" x1="487.1" y1="782" x2="487.1" y2="782" gradientTransform="matrix(1 0 0 -1 0 770)">
	<stop  offset="0" style="stop-color:#3CC6F3"/>
	<stop  offset="0.1592" style="stop-color:#42C6E4"/>
	<stop  offset="0.4636" style="stop-color:#52C5BE"/>
	<stop  offset="0.8785" style="stop-color:#6CC380"/>
	<stop  offset="1" style="stop-color:#74C36D"/>
</linearGradient>
<path style="fill:url(#SVGID_00000076594353346073064590000014870071289431577003_);" d="M487.1-12"/>
<linearGradient id="SVGID_00000031918444741950384630000010397071934379897534_" gradientUnits="userSpaceOnUse" x1="262.4" y1="778" x2="262.4" y2="778" gradientTransform="matrix(1 0 0 -1 0 770)">
	<stop  offset="0" style="stop-color:#3CC6F3"/>
	<stop  offset="0.1592" style="stop-color:#42C6E4"/>
	<stop  offset="0.4636" style="stop-color:#52C5BE"/>
	<stop  offset="0.8785" style="stop-color:#6CC380"/>
	<stop  offset="1" style="stop-color:#74C36D"/>
</linearGradient>
<path style="fill:url(#SVGID_00000031918444741950384630000010397071934379897534_);" d="M262.4-8"/>
</svg>
