<?xml version="1.0" encoding="utf-8"?>
<!-- Generator: Adobe Illustrator 26.0.1, SVG Export Plug-In . SVG Version: 6.00 Build 0)  -->
<svg version="1.1" id="Layer_1" xmlns="http://www.w3.org/2000/svg" xmlns:xlink="http://www.w3.org/1999/xlink" x="0px" y="0px"
	 viewBox="0 0 1366 768" style="enable-background:new 0 0 1366 768;" xml:space="preserve">
<style type="text/css">
	.st0{fill:url(#SVGID_1_);}
	.st1{fill:url(#SVGID_00000102540972804026596030000002173294815617686199_);}
	.st2{fill:url(#SVGID_00000129893710187394840320000001457985244638624424_);}
	.st3{fill:url(#SVGID_00000046317114706531380680000008084235657194932114_);}
	.st4{fill:url(#SVGID_00000148638622076623629790000006810166836169352102_);}
	.st5{fill:url(#SVGID_00000060709338239978786470000002093531331887186102_);}
	.st6{fill:none;}
	.st7{fill:url(#SVGID_00000000197007882627716840000004237680020087558291_);}
	.st8{fill:url(#SVGID_00000177469680134739379760000001541219148063193013_);}
	.st9{fill:url(#SVGID_00000114066817627668222170000016818945443481438879_);}
	.st10{fill:url(#SVGID_00000164491854650761750530000016912160400830100125_);}
	.st11{fill:url(#SVGID_00000165203864572082840810000012023493436150312339_);}
	.st12{fill:url(#SVGID_00000085240433302621797850000005356321184686867127_);}
	.st13{fill:url(#SVGID_00000152239886525801626050000014334635674791219872_);}
	.st14{fill:url(#SVGID_00000087392867226744209420000012840969884367680169_);}
	.st15{fill:url(#SVGID_00000136385824021168632030000007682068706089020859_);}
	.st16{fill:url(#SVGID_00000088131650710571479330000000996787098034807723_);}
	.st17{fill:url(#SVGID_00000105391543164195582450000000371590045765021065_);}
	.st18{fill:url(#SVGID_00000005978162432632995660000016070425953555861423_);}
	.st19{fill:url(#SVGID_00000041269301826091604610000008933117524536285111_);}
	.st20{fill:url(#SVGID_00000105412814369780679800000011709096359675290244_);}
	.st21{fill:url(#SVGID_00000110461273593175284870000013437132267939200146_);}
	.st22{fill:url(#SVGID_00000093859786189454392960000005408150827546705325_);}
</style>
<g id="Layer_1_00000119087345277621490030000001882947248487602581_">
	
		<image style="display:none;overflow:visible;enable-background:new    ;" width="1283" height="692" xlink:href="E2F96D51.jpeg"  transform="matrix(1.253 0 0 1.2006 -9.9283 -31.3945)">
	</image>
	
		<linearGradient id="SVGID_1_" gradientUnits="userSpaceOnUse" x1="191.127" y1="1450.8124" x2="681.3397" y2="2089.6208" gradientTransform="matrix(1.1728 -0.8151 0.7179 1.0329 -1109.4231 -1013.8887)">
		<stop  offset="0.2713" style="stop-color:#6DE3EE"/>
		<stop  offset="0.3537" style="stop-color:#6DE2EA"/>
		<stop  offset="0.4326" style="stop-color:#6EDFDF"/>
		<stop  offset="0.5101" style="stop-color:#6FDACB"/>
		<stop  offset="0.5867" style="stop-color:#70D4B0"/>
		<stop  offset="0.662" style="stop-color:#72CB8E"/>
		<stop  offset="0.7211" style="stop-color:#74C36D"/>
	</linearGradient>
	<path class="st0" d="M590.8,418.4c-5,12.9,0,23.9,1.4,26.7c7.9,15.5,26.8,19,37,20.9c10.7,2,11.3-0.1,34.8,1.5
		c15.9,1.1,23.8,1.6,30.3,3.5c16.3,4.9,32.3,18.1,35,34.1c1.2,7.1,1.8,11.1,0.3,16.7c-1.5,5.5-4.3,9.5-2.6,14.1
		c0.3,0.7,1.3,3.7,4.2,4.3c3.1,0.7,6.6-1.9,8-3c9.8-7.5,12.5-27,12.9-30c1.8-13.6,3.6-27.9-1.9-45.3c-6.7-21.4-20-33.3-30-42.2
		c-9-8-29.5-26-62.5-30.4c-20.6-2.7-32.7,1.6-35.5,2.6C616.7,394.1,597.5,401.2,590.8,418.4z"/>
	
		<linearGradient id="SVGID_00000105424650234781206330000015237505232497446300_" gradientUnits="userSpaceOnUse" x1="705.613" y1="2223.855" x2="724.6863" y2="2223.855" gradientTransform="matrix(1 0 0 1 0 -1668)">
		<stop  offset="1.325964e-07" style="stop-color:#6DE3EE"/>
		<stop  offset="0.9631" style="stop-color:#74C36D"/>
	</linearGradient>
	<path style="fill:url(#SVGID_00000105424650234781206330000015237505232497446300_);" d="M706.7,558.7c-0.3-0.6-2.7-5.5,0.6-9.1
		c3-3.3,9.2-3.5,13.2-1c3.3,2,4.8,5.7,4,9.1c-0.7,3.1-3.3,6.5-7.5,7C712.1,565.5,708.2,561.7,706.7,558.7z"/>
	
		<linearGradient id="SVGID_00000093173520705417390830000010491771432750849674_" gradientUnits="userSpaceOnUse" x1="793.9" y1="2366" x2="793.9" y2="2366" gradientTransform="matrix(1 0 0 1 0 -1668)">
		<stop  offset="1.325964e-07" style="stop-color:#6DE3EE"/>
		<stop  offset="1" style="stop-color:#6AEBF0"/>
	</linearGradient>
	<path style="fill:url(#SVGID_00000093173520705417390830000010491771432750849674_);" d="M793.9,698"/>
	
		<linearGradient id="SVGID_00000077324569468679531550000011288547597268410292_" gradientUnits="userSpaceOnUse" x1="420.2" y1="2479.6001" x2="420.2" y2="2479.6001" gradientTransform="matrix(1 0 0 1 0 -1668)">
		<stop  offset="0.1435" style="stop-color:#6DE3EE"/>
		<stop  offset="0.2885" style="stop-color:#6EDFDE"/>
		<stop  offset="0.5697" style="stop-color:#70D5B6"/>
		<stop  offset="0.9561" style="stop-color:#74C575"/>
		<stop  offset="1" style="stop-color:#74C36D"/>
	</linearGradient>
	<path style="fill:url(#SVGID_00000077324569468679531550000011288547597268410292_);" d="M420.2,811.6"/>
	
		<linearGradient id="SVGID_00000121278874341234942220000003900765157151624631_" gradientUnits="userSpaceOnUse" x1="369.9159" y1="75.2427" x2="1313.5754" y2="733.9661">
		<stop  offset="1.098034e-02" style="stop-color:#3CC6F3"/>
		<stop  offset="0.3466" style="stop-color:#42C6E4"/>
		<stop  offset="0.4859" style="stop-color:#52C5BE"/>
		<stop  offset="0.8785" style="stop-color:#6CC380"/>
		<stop  offset="1" style="stop-color:#74C36D"/>
	</linearGradient>
	<path style="fill:url(#SVGID_00000121278874341234942220000003900765157151624631_);" d="M453.9-0.6c22.3,12,39.6,33,42.8,57
		c1.1,15,3.2,33,21.5,37c7.5,1,14-2,19.4-6c4.3-4,4.3-10,4.3-15c0-16-8.6-30-20.4-42c-12.9-14-31.2-19-48.4-27c0-1,1.1-2,1.1-2
		c5.9-1,11.6-0.5,17,1c6.2,1.7,10.4,4,15.3,7c16.1,9.7,24.1,14.5,27.2,16.8c10.9,8.2,20.2,15.2,28.1,26.5c12,17.3,6.2,24,18.9,43.9
		c4.8,7.6,11.6,18,24.5,25.5c15.2,8.8,30.5,8.7,37.8,8.2c5.2-0.5,30.3-2.6,49.7,15c4.2,3.8,14.3,13.3,16.7,28.9
		c2.3,15.3-3.3,32.8-16.6,42.7c-10.8,8-22.9,8.2-26.6,8.3c-9.8,0.2-10.8-2.3-21.5-3.8c-2.5-0.4-25.3-3.5-40.6,10.7
		c-8.1,7.5-11.1,16.6-12.3,21.4c-0.7,5.2-1.5,17.8,5.4,30.6c0.8,1.5,5.1,9.2,13.8,16.1c7.6,6,14.8,8.3,19.9,10
		c10.4,3.3,18.8,3.7,21.5,3.8c24.7,1.4,50.7,14.5,55.2,16.9c29.8,15.4,46.6,39.2,53.6,49c7.4,10.5,12.8,21,13.8,23
		c2.9,5.7,7.4,14.6,10.7,26c5.2,17.9,4.8,32.5,4.6,40.6c-0.3,10.5-1,26.2-8.4,44.4c-3.2,7.7-8.9,22.2-22.2,36
		c-9,9.3-18.6,15.4-26.8,20.7c-6.8,4.3-13.6,8.1-19.9,11.5c-2.1,1.2-9.8,5.3-17.9,9.2c-5.5,2.7-18.5,8.7-35.7,14.6
		c-24.1,8.3-25.6,5.8-49.8,13.7c-18.1,5.9-27.2,8.8-38.8,15.8c-14.6,8.8-30.6,18-37.8,35.6c-7.2,17.6,1.5,25.7-7.1,36.4
		c-10,12.5-31.5,13.3-46,8.2c-2.9-1-20-7-21.4-18.2c-1.4-10.7,12.7-17.3,10.2-23.2c-3-7.1-25.6-4-36.3-2.6c-22.4,3-38.8,9-40.9,9.7
		c-28.3,10.4-50.7,23.2-66.4,33.2c-18.3,11.6-42.3,28.9-67.9,53.5c136.9,0.1,273.7,0.1,410.6-0.1c81-0.1,162-0.3,243-0.5l393.7-0.1
		h61.7V237c0-73.4,0-146.7,0-220.1c0-5.8,0-11.7,0-17.5c-108.7,0-217.4,0-326.2,0c-99.7,0-199.3,0-299,0c-25.9,0-51.7,0-77.6,0
		C593.5-0.6,523.7-0.6,453.9-0.6z"/>
	
		<linearGradient id="SVGID_00000101062482361958127150000011250152017618947761_" gradientUnits="userSpaceOnUse" x1="1340.007" y1="2101.301" x2="1001.5599" y2="1608.7145" gradientTransform="matrix(1 0 0 1 0 -1668)">
		<stop  offset="0.1822" style="stop-color:#FFFFFF;stop-opacity:0.2"/>
		<stop  offset="0.9905" style="stop-color:#FFFFFF;stop-opacity:2.332509e-03"/>
		<stop  offset="1" style="stop-color:#FFFFFF;stop-opacity:0"/>
	</linearGradient>
	<path style="fill:url(#SVGID_00000101062482361958127150000011250152017618947761_);" d="M719.1,0.3c12.2-0.8,102.4-5.2,165.4,77
		c36.2,47.2,19.8,96.5,49.8,140.3c45.4,66,126.6,23.8,216.2,50.4c59.3,17.6,138.3,68.1,215.4,218.1V0.3H719.1z"/>
	<path class="st6" d="M1116.7,78.3"/>
	
		<linearGradient id="SVGID_00000167388995073800251050000016724406483819614597_" gradientUnits="userSpaceOnUse" x1="1592.6" y1="2124.2" x2="1592.6" y2="2124.2" gradientTransform="matrix(1 0 0 1 0 -1668)">
		<stop  offset="1.325964e-07" style="stop-color:#3CC6F3"/>
		<stop  offset="0.1592" style="stop-color:#42C6E4"/>
		<stop  offset="0.4636" style="stop-color:#52C5BE"/>
		<stop  offset="0.8785" style="stop-color:#6CC380"/>
		<stop  offset="1" style="stop-color:#74C36D"/>
	</linearGradient>
	<path style="fill:url(#SVGID_00000167388995073800251050000016724406483819614597_);" d="M1592.6,456.2"/>
	
		<linearGradient id="SVGID_00000089557770319872139670000002796328925372276114_" gradientUnits="userSpaceOnUse" x1="698" y1="2166.7236" x2="1366" y2="2166.7236" gradientTransform="matrix(1 0 0 1 0 -1668)">
		<stop  offset="6.680820e-07" style="stop-color:#FFFFFF;stop-opacity:0.2"/>
		<stop  offset="1" style="stop-color:#FFFFFF;stop-opacity:0"/>
	</linearGradient>
	<path style="fill:url(#SVGID_00000089557770319872139670000002796328925372276114_);" d="M698,331c40.5-20.5,115.4-50.5,210-44.2
		c32.2,2.1,183.1,17.6,267.9,126.8c41.2,53,42.2,99.3,107.6,150c30.7,23.8,61.2,37.5,82.5,45.4c0,34.2,0,68.3,0,102.5
		c-7.3-1.1-15-2.5-23-4.2c-14.9-3.3-28.3-7.4-40.1-11.6c-23-9.2-57.8-25.9-90.4-56c-63.2-58.2-50.2-103.3-99.6-168
		c-69.1-90.5-182.6-117.2-209.5-123.6c-79.4-18.7-147-9.8-183.8-2.3c-0.7-2.1-2.2-5.3-5.1-8.2C708.2,331.2,699.9,331,698,331z"/>
	
		<linearGradient id="SVGID_00000117652212335113758570000012517998238642930586_" gradientUnits="userSpaceOnUse" x1="1441.5" y1="2222.2" x2="1441.5" y2="2222.2" gradientTransform="matrix(1 0 0 1 0 -1668)">
		<stop  offset="1.325964e-07" style="stop-color:#3CC6F3"/>
		<stop  offset="0.1592" style="stop-color:#42C6E4"/>
		<stop  offset="0.4636" style="stop-color:#52C5BE"/>
		<stop  offset="0.8785" style="stop-color:#6CC380"/>
		<stop  offset="1" style="stop-color:#74C36D"/>
	</linearGradient>
	<path style="fill:url(#SVGID_00000117652212335113758570000012517998238642930586_);" d="M1441.5,554.2"/>
	
		<linearGradient id="SVGID_00000043434764499910500310000006568021610239537281_" gradientUnits="userSpaceOnUse" x1="1261.3009" y1="2069.0359" x2="891.8083" y2="2464.0786" gradientTransform="matrix(1 0 0 1 0 -1668)">
		<stop  offset="1.910000e-02" style="stop-color:#FFFFFF;stop-opacity:0.3"/>
		<stop  offset="1" style="stop-color:#FFFFFF;stop-opacity:0"/>
	</linearGradient>
	<path style="fill:url(#SVGID_00000043434764499910500310000006568021610239537281_);" d="M774.8,494.7c3.5,6,13.7,1.5,25.8,3.9
		c20.9,4.2,36.1,26.8,41.7,44.6c6.8,21.7,0.9,40.7-2.2,50.5c-8.2,25.4-19.5,26.2-46.2,68.2c-10.6,16.7-15.8,29.3-22.5,44.7
		c-12.8,29.2-22.5,52.1-14.6,60.5c2.5,2.6,8.5,5.9,25.9-0.2c194.4,0,388.8,0,583.2,0c-0.2-4.7-0.4-11.5-0.1-19.7
		c0.7-23.8,4.2-31.4,0.1-35.2c-4.9-4.6-15.5,0.8-35.1,9.5c0,0-24.2,10.8-48.4,20.5c-36.7,14.5-73,5.2-95.6-0.6
		c-9.9-2.5-41.5-11.4-74.3-36.4c-29.5-22.5-26.5-32.6-63-62.3c-23.4-19-46-32.2-57.4-38.8c-28.3-16.4-33.3-15.5-56.3-30.5
		c-26.2-17.1-39.3-25.6-49.6-41.8c-10.3-16.1-8.8-24.5-25.8-51.7c-7.7-12.4-13.2-18.9-20.3-24.7c-10.8-8.8-20.9-12.1-30.4-15.3
		c-11.8-3.9-24.4-8-29.3-2.4c-1,1.2-1.3,2.4-1.7,13c-0.6,16.1,0,17.2-0.6,23.3C776.5,487.8,772.5,490.7,774.8,494.7z"/>
	
		<linearGradient id="SVGID_00000142156127947577856720000014254648053663772852_" gradientUnits="userSpaceOnUse" x1="1505.8" y1="2296.8" x2="1505.8" y2="2296.8" gradientTransform="matrix(1 0 0 1 0 -1668)">
		<stop  offset="1.325964e-07" style="stop-color:#3CC6F3"/>
		<stop  offset="0.1592" style="stop-color:#42C6E4"/>
		<stop  offset="0.4636" style="stop-color:#52C5BE"/>
		<stop  offset="0.8785" style="stop-color:#6CC380"/>
		<stop  offset="1" style="stop-color:#74C36D"/>
	</linearGradient>
	<path style="fill:url(#SVGID_00000142156127947577856720000014254648053663772852_);" d="M1505.8,628.8"/>
	<path class="st6" d="M1499.7,484.8"/>
	
		<linearGradient id="SVGID_00000109001277491744753380000012396249264618741183_" gradientUnits="userSpaceOnUse" x1="1452.7" y1="2244.7" x2="1452.7" y2="2244.7" gradientTransform="matrix(1 0 0 1 0 -1668)">
		<stop  offset="6.629821e-07" style="stop-color:#FFFFFF;stop-opacity:0.2"/>
		<stop  offset="1" style="stop-color:#FFFFFF;stop-opacity:0.2"/>
	</linearGradient>
	<path style="fill:url(#SVGID_00000109001277491744753380000012396249264618741183_);" d="M1452.7,576.7"/>
</g>
<g id="Layer_2_00000062913866112698179050000007455301128217149608_">
</g>
<linearGradient id="SVGID_00000090986182647247112880000012251493599380961157_" gradientUnits="userSpaceOnUse" x1="323.3796" y1="1563.3932" x2="1454.015" y2="573.124">
	<stop  offset="0.1429" style="stop-color:#3CC6F3"/>
	<stop  offset="0.2583" style="stop-color:#3DC6F1"/>
	<stop  offset="0.2998" style="stop-color:#3FC6EA"/>
	<stop  offset="0.3182" style="stop-color:#42C6E4"/>
	<stop  offset="0.379" style="stop-color:#4AC6D0"/>
	<stop  offset="0.573" style="stop-color:#64C493"/>
	<stop  offset="0.6171" style="stop-color:#69C486"/>
	<stop  offset="0.7113" style="stop-color:#72C371"/>
	<stop  offset="0.9362" style="stop-color:#74C36E"/>
	<stop  offset="1" style="stop-color:#74C36D"/>
</linearGradient>
<path style="fill:url(#SVGID_00000090986182647247112880000012251493599380961157_);" d="M1365.9,771.2c1.9,5,1.7,129.4,0,134.9
	c0,0,0,182.4,0,547.2c0,5.7,0,11.4,0,17.1c0,12.7,0,12.7,0,12.8c-0.2,12.8-9.6,30.3-24,40.7c-16.3,11.8-33.3,10.2-40,9.6
	c-5.3-0.5-20.2-2.5-34-13.9c-6.2-5.1-12.3-10.2-14-19.3c-1.6-9,1.7-18.8,8-24.6c10.1-9.4,24.6-5.5,29-4.3c13.2,3.6,13.4,11,27,15
	c3.7,1.1,18.3,5.3,29-3.2c6.2-5,12.9-15.8,9-22.5c-2.8-4.7-10.1-6.4-18-4.3c-5.2-0.1-49.5-2-78-36.4c-2.7-3.3-9.2-15.1-22-38.6
	c-20.1-36.7-18.8-37.8-24-42.8c-20.5-19.8-59.8-21.9-84-4.3c-14.7,10.7-12,20.1-31,46c-9.6,13.1-27.2,37.1-54,50.3
	c-34.6,17.1-83.1,15.2-110-12.8c-8.2-8.6-21-26.5-16-38.6c6.5-15.6,35.8-4.7,53-21.4c19.4-18.8,15.6-65,2-95.3
	c-34.4-76.5-156.2-106.2-244-71.7c-22.4,8.8-18.5,13.1-45,24.6c-109.7,47.9-193,3.2-193,3.2c-15.4-8.2-57.2-30.7-78-80.3
	c-6.6-15.7-22.8-54.3-12-93.5c3.6-12.9,9.7-24.7,8-43.6c-0.5-4.8-2.4-24.8-16-38.6c-4.8-4.9-11-8.7-40-15
	c-31.6-6.9-39.7-5.7-49.2-8.4c-2.7-0.8-5.3-1.8-8.8-3.4c-12.7-5.7-29.4-13.2-42.3-29.3c-5.9-7.4-8.9-14-11.5-19.9
	c-8.6-19.3-9.5-36.2-10-46c-0.7-14.5,1.1-24.5,1.5-26.8c0.7-4,2.2-11.8,6.1-20.7c0,0,5.5-12.5,15.3-23.4c1.8-2,398.7-4,717.4-3.6
	C1186.2,766.7,1364.7,768,1365.9,771.2z"/>
<linearGradient id="SVGID_00000019636869714310571750000010104794030959199360_" gradientUnits="userSpaceOnUse" x1="664.3048" y1="-638.2294" x2="921.6666" y2="-246.0591" gradientTransform="matrix(1 0 0 -1 0 770)">
	<stop  offset="0.1955" style="stop-color:#6DE3EE"/>
	<stop  offset="0.2687" style="stop-color:#6DE1E7"/>
	<stop  offset="0.3764" style="stop-color:#6EDCD3"/>
	<stop  offset="0.5054" style="stop-color:#70D4B3"/>
	<stop  offset="0.6498" style="stop-color:#73C986"/>
	<stop  offset="0.7211" style="stop-color:#74C36D"/>
</linearGradient>
<path style="fill:url(#SVGID_00000019636869714310571750000010104794030959199360_);" d="M713.5,1408.6c18.4,2.3,31.7-6.7,35-9.2
	c18.5-13.7,18.5-36.9,18.4-49.5c0-13.2-3-13.3-6.8-41.3c-2.6-19-3.9-28.5-2.9-36.7c2.4-20.6,15.8-43.1,36.4-50.8
	c9.1-3.4,14.3-5.3,22-5.1c7.6,0.2,13.7,2.4,19.4-0.9c0.9-0.5,4.5-2.6,4.6-6.1c0.2-3.9-4.2-7.2-6-8.6c-12.4-9.5-38.9-7.1-43-6.7
	c-18.5,1.8-37.8,3.7-59.6,15.1c-26.6,14-39.1,33-48.5,47.2c-8.4,12.8-27.3,47.2-22.1,87.1c3.2,24.8,7.9,33.1,10,36.2
	C674.7,1385.1,689.1,1405.6,713.5,1408.6z"/>
<linearGradient id="SVGID_00000049211367350295965150000006875044606163787666_" gradientUnits="userSpaceOnUse" x1="849.9502" y1="2867.5564" x2="868.9533" y2="2867.5564" gradientTransform="matrix(1 0 0 1 0 -1666)">
	<stop  offset="1.325964e-07" style="stop-color:#6DE3EE"/>
	<stop  offset="0.9631" style="stop-color:#74C36D"/>
</linearGradient>
<path style="fill:url(#SVGID_00000049211367350295965150000006875044606163787666_);" d="M850.6,1202.6c-0.2-0.4-1.7-3.4,0.5-6.3
	c1.9-2.5,5.6-3.5,8.6-3.3c4.3,0.3,8.1,3.1,9,6.9c0.1,0.3,1.2,4.5-2.7,7.6c-0.3,0.3-4.8,3.6-9.9,2.1
	C852.7,1208.6,850.4,1205.8,850.6,1202.6z"/>
<linearGradient id="SVGID_00000147193499929660331510000017197482928933770430_" gradientUnits="userSpaceOnUse" x1="1327.9484" y1="-655.0493" x2="1327.9484" y2="-655.0493" gradientTransform="matrix(1 0 0 -1 0 770)">
	<stop  offset="0" style="stop-color:#3CC6F3"/>
	<stop  offset="0.1592" style="stop-color:#42C6E4"/>
	<stop  offset="0.4636" style="stop-color:#52C5BE"/>
	<stop  offset="0.8785" style="stop-color:#6CC380"/>
	<stop  offset="1" style="stop-color:#74C36D"/>
</linearGradient>
<path style="fill:url(#SVGID_00000147193499929660331510000017197482928933770430_);" d="M1327.9,1425"/>
<linearGradient id="SVGID_00000021804761491254976380000002411244504148594826_" gradientUnits="userSpaceOnUse" x1="1357.9484" y1="-657.0493" x2="1357.9484" y2="-657.0493" gradientTransform="matrix(1 0 0 -1 0 770)">
	<stop  offset="0" style="stop-color:#3CC6F3"/>
	<stop  offset="0.1592" style="stop-color:#42C6E4"/>
	<stop  offset="0.4636" style="stop-color:#52C5BE"/>
	<stop  offset="0.8785" style="stop-color:#6CC380"/>
	<stop  offset="1" style="stop-color:#74C36D"/>
</linearGradient>
<path style="fill:url(#SVGID_00000021804761491254976380000002411244504148594826_);" d="M1357.9,1427"/>
<linearGradient id="SVGID_00000116954700913383943770000000229409091400095407_" gradientUnits="userSpaceOnUse" x1="811.7235" y1="-233.2571" x2="1346.8724" y2="73.1259" gradientTransform="matrix(1 0 0 -1 0 770)">
	<stop  offset="2.651929e-07" style="stop-color:#FFFFFF;stop-opacity:0"/>
	<stop  offset="1" style="stop-color:#FFFFFF;stop-opacity:0.2"/>
</linearGradient>
<path style="fill:url(#SVGID_00000116954700913383943770000000229409091400095407_);" d="M1355.9,932.3
	c-5.2,9.7-14.5,24.4-30.1,36.5c-41.4,32-91.8,18.3-102.3,15.5c-18.1-4.9-35.8-15.8-71.2-37.6c-22.3-13.7-20.4-14.3-39.1-25.4
	c-28.8-17.1-50.8-30.2-80.2-35.4c-21.3-3.8-37.5-1.8-53.2,0c-43.3,5.1-47.3,17.5-86.3,23.2c-23.5,3.4-55.8,8.1-87.3-11.1
	c-24.9-15.1-37.3-37.8-40.1-43.1c-4.1-7.8-12-23.3-13-45.3c-0.7-16,2.5-28.8,5-36.5l608.9-4.4v148.2L1355.9,932.3z"/>
<linearGradient id="SVGID_00000177482062102648817900000006215811371497144210_" gradientUnits="userSpaceOnUse" x1="206.7623" y1="-51.7552" x2="1480.6475" y2="-528.2788" gradientTransform="matrix(1 0 0 -1 0 770)">
	<stop  offset="0" style="stop-color:#FFFFFF;stop-opacity:0.2"/>
	<stop  offset="1" style="stop-color:#FFFFFF;stop-opacity:0"/>
</linearGradient>
<path style="fill:url(#SVGID_00000177482062102648817900000006215811371497144210_);" d="M270.7,860c19-7.4,48.2-18.7,87.9-15
	c8.1,0.8,40.5,4.4,74.5,25c32.8,20,53.5,47.6,67.3,66c14.2,18.9,20.6,32.1,40.4,49c2.9,2.5,15.2,12.8,34.1,23
	c12.8,6.9,57.6,30.1,117.3,24.7c12.9-1.2,22.5-3.3,28.6-4.7c38.7-8.8,52.9-22.2,85.9-37c10.2-4.6,46.9-20.4,95.2-26
	c7.7-0.9,35.7-3.9,72.4,0c54.4,5.7,93.8,22.9,121.1,35c30.5,13.6,57.6,30.4,111.7,64c17.9,11.1,32.5,20.5,42.4,27
	c22,14.5,40.6,25,53.8,32c9.6,5.1,23.4,12.2,41.4,24c23.6,15.5,27.5,21.4,29,24c7,11.9,4.3,21.3,2.1,48c-1.3,15.9-1.6,36.3-2.1,77
	c-0.5,44.5,2,49.4-3.1,53c-8.7,6.2-28.8,1.1-130.4-75c-39.6-29.7-58.2-45.1-105.5-82c-64.1-49.9-96.7-75.2-119-88
	c-41.1-23.6-88.1-50.7-149-56c-73.1-6.4-152.5,22-218.3,45c-20.3,7.1-53.8,19.7-94.2,12c-31.2-5.9-55-21.8-61-26
	c-26.9-18.6-49.9-47-54.8-53c-11-13.6-28.7-37.7-44.5-36c-2.2,0.2-8.3,1.4-12.4-2c-3.3-2.7-3-6.4-4.1-11
	c-3.5-14.2-17.2-22.5-19.7-24c-5.1-3.1-7.9-3.1-21.7-6c-5.1-1.1-21.4-4.5-33.1-8c-18.2-5.4-29.9-12.5-50.7-25
	c-4.1-2.5-9.7-6-15.5-12c-2.3-2.4-4-4.5-5.2-6c-2.2-1.3-4.7-3.2-5.2-6C224.2,878.1,262.8,863.1,270.7,860z"/>
<linearGradient id="SVGID_00000176010063690107420020000011955810517241205428_" gradientUnits="userSpaceOnUse" x1="177.9484" y1="-263.0493" x2="177.9484" y2="-263.0493" gradientTransform="matrix(1 0 0 -1 0 770)">
	<stop  offset="0" style="stop-color:#FFFFFF;stop-opacity:0.2"/>
	<stop  offset="1" style="stop-color:#FFFFFF;stop-opacity:0"/>
</linearGradient>
<path style="fill:url(#SVGID_00000176010063690107420020000011955810517241205428_);" d="M177.9,1033"/>
<linearGradient id="SVGID_00000150104876171872340870000010081306248759865763_" gradientUnits="userSpaceOnUse" x1="486.0882" y1="758.0773" x2="486.0882" y2="758.0773">
	<stop  offset="0" style="stop-color:#3CC6F3"/>
	<stop  offset="0.1592" style="stop-color:#42C6E4"/>
	<stop  offset="0.4636" style="stop-color:#52C5BE"/>
	<stop  offset="0.8785" style="stop-color:#6CC380"/>
	<stop  offset="1" style="stop-color:#74C36D"/>
</linearGradient>
<path style="fill:url(#SVGID_00000150104876171872340870000010081306248759865763_);" d="M486.1,758.1"/>
<linearGradient id="SVGID_00000054977361346060901190000004138233615144830608_" gradientUnits="userSpaceOnUse" x1="261.3527" y1="762.028" x2="261.3527" y2="762.028">
	<stop  offset="0" style="stop-color:#3CC6F3"/>
	<stop  offset="0.1592" style="stop-color:#42C6E4"/>
	<stop  offset="0.4636" style="stop-color:#52C5BE"/>
	<stop  offset="0.8785" style="stop-color:#6CC380"/>
	<stop  offset="1" style="stop-color:#74C36D"/>
</linearGradient>
<path style="fill:url(#SVGID_00000054977361346060901190000004138233615144830608_);" d="M261.4,762"/>
</svg>
