<?xml version="1.0" encoding="utf-8"?>
<!-- Generator: Adobe Illustrator 26.0.1, SVG Export Plug-In . SVG Version: 6.00 Build 0)  -->
<svg version="1.1" id="Layer_1" xmlns="http://www.w3.org/2000/svg" xmlns:xlink="http://www.w3.org/1999/xlink" x="0px" y="0px"
	 viewBox="0 0 540 1000" style="enable-background:new 0 0 540 1000;" xml:space="preserve">
<style type="text/css">
	.st0{fill:url(#SVGID_1_);}
	.st1{fill:url(#SVGID_00000149364569129732764860000011799137725466362298_);}
	.st2{fill:url(#SVGID_00000023260660395759538400000003885849571897513377_);stroke:#000000;stroke-miterlimit:10;}
	.st3{fill:url(#SVGID_00000060729539301007318700000011304542001915927200_);}
	.st4{fill:url(#SVGID_00000127039910471678574930000011618950148933216434_);}
	.st5{fill:url(#SVGID_00000091713435357164307800000011083823606106920873_);}
	.st6{fill:url(#SVGID_00000050662934529027714630000015546780826595104397_);}
	.st7{fill:none;stroke:#000000;stroke-miterlimit:10;}
	.st8{fill:url(#SVGID_00000105389464478850003440000008290198678394767775_);}
	.st9{fill:url(#SVGID_00000145049474449535768260000010380268451110285745_);}
	.st10{fill:url(#SVGID_00000106134139352638483500000007614402379276269487_);}
	.st11{fill:url(#SVGID_00000018222159586588394260000010383548859075845271_);}
	.st12{fill:url(#SVGID_00000051351159544685592920000007577001429128327058_);}
	.st13{fill:url(#SVGID_00000162347763355057951480000006238909136819764151_);}
</style>
<g id="Layer_1_00000119087345277621490030000001882947248487602581_">
	
		<image style="display:none;overflow:visible;enable-background:new    ;" width="1280" height="720" xlink:href="34137530.jpg"  transform="matrix(-4.802323e-03 0.8724 -0.8442 -4.556156e-03 577 46.2804)">
	</image>
	
		<linearGradient id="SVGID_1_" gradientUnits="userSpaceOnUse" x1="-2.161" y1="195.395" x2="342.4342" y2="644.4457" gradientTransform="matrix(0.8087 1.1772 -1.0368 0.7123 515.05 18.509)">
		<stop  offset="0.2713" style="stop-color:#6DE3EE"/>
		<stop  offset="0.3537" style="stop-color:#6DE2EA"/>
		<stop  offset="0.4326" style="stop-color:#6EDFDF"/>
		<stop  offset="0.5101" style="stop-color:#6FDACB"/>
		<stop  offset="0.5867" style="stop-color:#70D4B0"/>
		<stop  offset="0.662" style="stop-color:#72CB8E"/>
		<stop  offset="0.7211" style="stop-color:#74C36D"/>
	</linearGradient>
	<path class="st0" d="M246.4,460.4c-9.1-3.6-16.9-0.1-18.9,0.9c-11,5.5-13.6,18.7-15,25.9c-1.5,7.5,0,8-1.2,24.4
		c-0.8,11.1-1.2,16.7-2.6,21.2c-3.5,11.4-12.9,22.6-24.3,24.4c-5,0.8-7.9,1.3-11.8,0.2c-3.9-1.1-6.7-3.1-10-1.9
		c-0.5,0.2-2.6,0.9-3,2.9c-0.5,2.2,1.3,4.6,2.1,5.6c5.3,6.9,19.1,8.9,21.2,9.2c9.6,1.3,19.7,2.6,32.1-1.2
		c15.2-4.6,23.7-13.9,30-20.8c5.7-6.3,18.5-20.6,21.7-43.8c2-14.4-1-22.9-1.7-24.9C263.6,478.7,258.5,465.2,246.4,460.4z"/>
	
		<linearGradient id="SVGID_00000158028215917123943320000009842707583151221677_" gradientUnits="userSpaceOnUse" x1="22.4972" y1="607.8062" x2="35.8772" y2="607.8062" gradientTransform="matrix(-5.450334e-03 1 -1 -5.450334e-03 756.4679 521.2357)">
		<stop  offset="1.325964e-07" style="stop-color:#6DE3EE"/>
		<stop  offset="0.9631" style="stop-color:#74C36D"/>
	</linearGradient>
	<path style="fill:url(#SVGID_00000158028215917123943320000009842707583151221677_);" d="M146.5,541.2c0.4-0.2,3.9-1.9,6.4,0.4
		c2.3,2.1,2.4,6.5,0.7,9.2c-1.5,2.3-4.1,3.3-6.4,2.8c-2.2-0.5-4.6-2.4-5-5.3C141.8,544.9,144.5,542.2,146.5,541.2z"/>
	
		<linearGradient id="SVGID_00000158720045040216781490000008887682601988428969_" gradientUnits="userSpaceOnUse" x1="84.4267" y1="708.4211" x2="84.4267" y2="708.4211" gradientTransform="matrix(-5.450334e-03 1 -1 -5.450334e-03 756.4679 521.2357)">
		<stop  offset="1.325964e-07" style="stop-color:#6DE3EE"/>
		<stop  offset="1" style="stop-color:#6AEBF0"/>
	</linearGradient>
	<path style="fill:url(#SVGID_00000158720045040216781490000008887682601988428969_);stroke:#000000;stroke-miterlimit:10;" d="
		M47.6,601.8"/>
	
		<linearGradient id="SVGID_00000101804158898429621220000009279051640435402167_" gradientUnits="userSpaceOnUse" x1="-103.5087" y1="668.6937" x2="-82.5228" y2="795.3325" gradientTransform="matrix(-1.300000e-02 1.4563 -1.1868 -1.060000e-02 922.2094 475.6969)">
		<stop  offset="0" style="stop-color:#6DE3EE"/>
		<stop  offset="0.1668" style="stop-color:#6DE2EA"/>
		<stop  offset="0.345" style="stop-color:#6EDFDD"/>
		<stop  offset="0.5284" style="stop-color:#6FD9C8"/>
		<stop  offset="0.7155" style="stop-color:#71D2AA"/>
		<stop  offset="0.9036" style="stop-color:#73C984"/>
		<stop  offset="1" style="stop-color:#74C36D"/>
	</linearGradient>
	<path style="fill:url(#SVGID_00000101804158898429621220000009279051640435402167_);" d="M-0.9,375.7c6.5-1.6,16.6-3.1,28.6-0.8
		c4.1,0.8,17.2,3.7,31.6,14.9c26.5,20.4,30.6,47.5,40,45.2c7.6-1.9,11.1-21.3,11.5-33.3c0.8-27.2-13.7-47.6-20.1-56.5
		C75,323.6,66.8,328.1,43.9,300c-8.1-9.9-14.2-19.2-19.5-27.3c-10.4-15.8-18.3-30.1-24-40.9L-0.9,375.7z"/>
	
		<linearGradient id="SVGID_00000136411880366175474790000006265604730685321148_" gradientUnits="userSpaceOnUse" x1="-177.7058" y1="788.9025" x2="-177.7058" y2="788.9025" gradientTransform="matrix(-5.450334e-03 1 -1 -5.450334e-03 756.4679 521.2357)">
		<stop  offset="0.1435" style="stop-color:#6DE3EE"/>
		<stop  offset="0.2885" style="stop-color:#6EDFDE"/>
		<stop  offset="0.5697" style="stop-color:#70D5B6"/>
		<stop  offset="0.9561" style="stop-color:#74C575"/>
		<stop  offset="1" style="stop-color:#74C36D"/>
	</linearGradient>
	<path style="fill:url(#SVGID_00000136411880366175474790000006265604730685321148_);" d="M-31.5,339.2"/>
	
		<linearGradient id="SVGID_00000005236232075995123840000016047985415478297485_" gradientUnits="userSpaceOnUse" x1="112.7869" y1="72.6538" x2="452.4282" y2="572.8548" gradientTransform="matrix(1 1.695712e-03 1.695712e-03 -1 0.2387 1001.8422)">
		<stop  offset="0" style="stop-color:#3CC6F3"/>
		<stop  offset="0.1592" style="stop-color:#42C6E4"/>
		<stop  offset="0.4636" style="stop-color:#52C5BE"/>
		<stop  offset="0.8785" style="stop-color:#6CC380"/>
		<stop  offset="1" style="stop-color:#74C36D"/>
	</linearGradient>
	<path style="fill:url(#SVGID_00000005236232075995123840000016047985415478297485_);" d="M503.2,395.8c-10.6,0.7-23.4,2.1-26.3,15
		c-0.7,5.3,1.4,9.8,4.2,13.6c2.8,3,7.1,3.1,10.6,3.1c11.3,0.1,21.3-5.9,29.8-14.2c10-9,13.6-21.8,19.3-33.9c0.7,0,1.4,0.8,1.4,0.8
		c0.7,4.2,0.3,8.1-0.8,11.9c-1.2,4.3-2.9,7.3-5,10.7c-6.9,11.2-10.4,16.8-12,19c-5.8,7.6-10.8,14.1-18.9,19.6
		c-12.3,8.3-17,4.3-31.2,13.1c-5.4,3.4-12.8,8.1-18.2,17.1c-6.3,10.6-6.3,21.3-5.9,26.5c0.4,3.6,1.7,21.3-10.8,34.8
		c-2.7,2.9-9.5,10-20.5,11.6c-10.8,1.6-23.3-2.4-30.2-11.8c-5.6-7.6-5.8-16.1-5.8-18.7c-0.1-6.9,1.6-7.6,2.8-15
		c0.3-1.8,2.6-17.7-7.4-28.5c-5.3-5.7-11.8-7.8-15.1-8.7c-3.7-0.5-12.6-1.2-21.7,3.6c-1.1,0.6-6.6,3.5-11.5,9.6
		c-4.2,5.3-6,10.3-7.1,13.9c-2.4,7.3-2.7,13.2-2.8,15c-1.1,17.3-10.5,35.5-12.2,38.6c-11,20.9-27.9,32.6-34.9,37.4
		c-7.5,5.2-14.9,8.9-16.3,9.6c-4.1,2-10.3,5.1-18.5,7.4c-12.7,3.6-23.1,3.3-28.8,3.1c-7.4-0.3-18.6-0.8-31.4-6.1
		c-5.4-2.2-15.7-6.3-25.4-15.7c-6.6-6.3-10.9-13.1-14.5-18.9c-3.1-4.8-5.7-9.6-8.1-14c-0.8-1.5-3.7-6.9-6.4-12.6
		c-3.9-8.1-5.9-13.6-10.2-25.1c-6.4-17.2-9.8-25.9-13.4-34.5c-3.3-7.8-5.5-13.1-9.1-19.9c-5-9.6-11.2-22-23.1-34.6
		c-5.9-6.2-14.9-14.5-27.6-22c-4-2.2-12-5.9-22.7-6.1c-7.9-0.2-14.3,1.7-18.2,3.1c-0.3,39.8-0.5,79.5-0.7,119.3
		C-1.8,569.7-2,626.6-2.2,683.4l-1.4,276.2l-0.2,43.3l375.8,2c52,0.3,103.9,0.6,155.9,0.8c4.1,0,8.3,0,12.4,0.1
		c0.4-76.3,0.8-152.5,1.3-228.8c0.4-69.9,0.8-139.8,1.2-209.7c0.1-18.1,0.2-36.3,0.3-54.4c0.3-49,0.5-97.9,0.8-146.9
		C535.2,381.6,520.3,393.6,503.2,395.8z M502,506.6c-4.6,0-4.5-7,0-7C506.5,499.6,506.5,506.6,502,506.6z"/>
	
		<linearGradient id="SVGID_00000068642726826080727910000005028179199247464087_" gradientUnits="userSpaceOnUse" x1="543.0055" y1="468.7499" x2="221.2575" y2="197.4305" gradientTransform="matrix(-5.450334e-03 1 -1 -5.450334e-03 756.4679 521.2357)">
		<stop  offset="0.1822" style="stop-color:#FFFFFF;stop-opacity:0.2"/>
		<stop  offset="1" style="stop-color:#FFFFFF;stop-opacity:0"/>
	</linearGradient>
	<path style="fill:url(#SVGID_00000068642726826080727910000005028179199247464087_);" d="M542.1,552c0.5,8.6,3.3,71.9-55.2,115.7
		c-33.6,25.2-68.5,13.5-99.6,34.4c-46.9,31.6-17.4,88.7-36.5,151.5c-12.7,41.6-48.8,96.7-155.3,150.3l344.1,1.9L542.1,552z"/>
	<path class="st7" d="M485.3,830.6"/>
	
		<linearGradient id="SVGID_00000088824804577254610200000009548483070893670333_" gradientUnits="userSpaceOnUse" x1="644.6921" y1="537.1633" x2="644.6921" y2="537.1633" gradientTransform="matrix(-5.450334e-03 1 -1 -5.450334e-03 756.4679 521.2357)">
		<stop  offset="1.325964e-07" style="stop-color:#3CC6F3"/>
		<stop  offset="0.1592" style="stop-color:#42C6E4"/>
		<stop  offset="0.4636" style="stop-color:#52C5BE"/>
		<stop  offset="0.8785" style="stop-color:#6CC380"/>
		<stop  offset="1" style="stop-color:#74C36D"/>
	</linearGradient>
	<path style="fill:url(#SVGID_00000088824804577254610200000009548483070893670333_);" d="M215.8,1163"/>
	
		<linearGradient id="SVGID_00000009557443242132555630000017354864566117344177_" gradientUnits="userSpaceOnUse" x1="19.2801" y1="567.1699" x2="485.7357" y2="567.1699" gradientTransform="matrix(-5.450334e-03 1 -1 -5.450334e-03 756.4679 521.2357)">
		<stop  offset="6.680820e-07" style="stop-color:#FFFFFF;stop-opacity:0.2"/>
		<stop  offset="1" style="stop-color:#FFFFFF;stop-opacity:0"/>
	</linearGradient>
	<path style="fill:url(#SVGID_00000009557443242132555630000017354864566117344177_);" d="M312.7,538.1
		c13.2,29.4,31.1,81.2,25.7,145.3c-1.1,13.7-12.2,127.7-90.8,187.4c-37.7,28.7-70.5,29.2-106.7,74.9c-17,21.4-26.8,42.8-32.5,57.7
		c-24.2-0.1-48.4-0.3-72.6-0.4c0.8-5.1,1.8-10.5,3.1-16.1c2.4-10.5,5.3-19.8,8.4-28.1c6.6-16.1,18.6-40.4,40-63.2
		c41.4-44.1,73.4-34.9,119.4-69.2c64.4-48.1,83.8-127.6,88.4-146.5c13.6-55.6,7.5-103.1,2.4-128.9c1.8-0.9,3.8-2.1,5.8-3.5
		C307.5,544.4,310.6,540.9,312.7,538.1z"/>
	
		<linearGradient id="SVGID_00000124863349408837661930000010549532555380122522_" gradientUnits="userSpaceOnUse" x1="538.6706" y1="606.6131" x2="538.6706" y2="606.6131" gradientTransform="matrix(-5.450334e-03 1 -1 -5.450334e-03 756.4679 521.2357)">
		<stop  offset="1.325964e-07" style="stop-color:#3CC6F3"/>
		<stop  offset="0.1592" style="stop-color:#42C6E4"/>
		<stop  offset="0.4636" style="stop-color:#52C5BE"/>
		<stop  offset="0.8785" style="stop-color:#6CC380"/>
		<stop  offset="1" style="stop-color:#74C36D"/>
	</linearGradient>
	<path style="fill:url(#SVGID_00000124863349408837661930000010549532555380122522_);" d="M146.9,1056.6"/>
	
		<linearGradient id="SVGID_00000045602125412170145290000006099106312644161935_" gradientUnits="userSpaceOnUse" x1="411.9558" y1="499.8084" x2="152.5538" y2="777.1478" gradientTransform="matrix(-5.450334e-03 1 -1 -5.450334e-03 756.4679 521.2357)">
		<stop  offset="1.910000e-02" style="stop-color:#FFFFFF;stop-opacity:0.3"/>
		<stop  offset="1" style="stop-color:#FFFFFF;stop-opacity:0"/>
	</linearGradient>
	<path style="fill:url(#SVGID_00000045602125412170145290000006099106312644161935_);" d="M191.7,589.2c-4.3,2.4-1.1,9.6-2.9,18
		c-3,14.7-19.2,25.2-31.8,29c-15.4,4.7-28.8,0.5-35.8-1.8c-17.9-5.9-18.4-13.8-48.1-32.6c-11.8-7.5-20.7-11.2-31.5-16
		c-20.6-9.1-36.8-16-42.8-10.5c-1.9,1.7-4.2,6,0,18.2C-2,730-2.7,866.3-3.5,1002.7c3.3-0.1,8.1-0.2,13.9,0c16.9,0.6,22.2,3,25,0.2
		c3.3-3.4-0.5-10.9-6.6-24.6c0,0-7.6-17-14.3-34.1c-10.2-25.8-3.4-51.2,0.8-67.1c1.8-6.9,8.3-29.1,26.1-52
		c16.1-20.6,23.2-18.5,44.4-44c13.5-16.3,23-32.1,27.7-40.1c11.7-19.8,11.1-23.3,21.9-39.4c12.2-18.3,18.3-27.5,29.8-34.6
		c11.5-7.1,17.4-6.1,36.7-17.9c8.8-5.4,13.4-9.2,17.6-14.1c6.3-7.6,8.7-14.6,10.9-21.3c2.8-8.2,5.8-17.1,1.8-20.5
		c-0.8-0.7-1.7-0.9-9.2-1.3c-11.4-0.5-12.2-0.1-16.5-0.5C196.6,590.4,194.5,587.6,191.7,589.2z"/>
	
		<linearGradient id="SVGID_00000076566161272772037400000006432201588140547511_" gradientUnits="userSpaceOnUse" x1="583.8055" y1="659.4372" x2="583.8055" y2="659.4372" gradientTransform="matrix(-5.450334e-03 1 -1 -5.450334e-03 756.4679 521.2357)">
		<stop  offset="1.325964e-07" style="stop-color:#3CC6F3"/>
		<stop  offset="0.1592" style="stop-color:#42C6E4"/>
		<stop  offset="0.4636" style="stop-color:#52C5BE"/>
		<stop  offset="0.8785" style="stop-color:#6CC380"/>
		<stop  offset="1" style="stop-color:#74C36D"/>
	</linearGradient>
	<path style="fill:url(#SVGID_00000076566161272772037400000006432201588140547511_);" d="M93.8,1101.4"/>
	<path class="st7" d="M195.9,1097.7"/>
	
		<linearGradient id="SVGID_00000104695907293067322270000012233405223781731490_" gradientUnits="userSpaceOnUse" x1="546.5492" y1="622.5354" x2="546.5492" y2="622.5354" gradientTransform="matrix(-5.450334e-03 1 -1 -5.450334e-03 756.4679 521.2357)">
		<stop  offset="6.629821e-07" style="stop-color:#FFFFFF;stop-opacity:0.2"/>
		<stop  offset="1" style="stop-color:#FFFFFF;stop-opacity:0.2"/>
	</linearGradient>
	<path style="fill:url(#SVGID_00000104695907293067322270000012233405223781731490_);" d="M131,1064.4"/>
</g>
<g id="Layer_2_00000062913866112698179050000007455301128217149608_">
</g>
</svg>