<svg width="97" height="950" viewBox="0 0 97 950" fill="none" xmlns="http://www.w3.org/2000/svg">
<path d="M54.9141 0.625V103H33.8906V0.625H54.9141ZM86.4141 0.625V17.1484H2.88281V0.625H86.4141ZM9.14062 169.625H47.3203C55.1484 169.625 61.875 170.797 67.5 173.141C73.1719 175.484 77.5312 178.953 80.5781 183.547C83.625 188.141 85.1484 193.789 85.1484 200.492C85.1484 205.977 84.2109 210.688 82.3359 214.625C80.5078 218.516 77.9062 221.773 74.5312 224.398C71.2031 226.977 67.2891 229.039 62.7891 230.586L56.1094 234.102H22.9219L22.7812 217.648H47.4609C51.1641 217.648 54.2344 216.992 56.6719 215.68C59.1094 214.367 60.9375 212.539 62.1562 210.195C63.4219 207.852 64.0547 205.133 64.0547 202.039C64.0547 198.758 63.4453 195.922 62.2266 193.531C61.0078 191.141 59.1562 189.312 56.6719 188.047C54.1875 186.781 51.0703 186.148 47.3203 186.148H30.2344V272H9.14062V169.625ZM66.375 272L43.0312 226.367L65.3203 226.227L88.9453 271.016V272H66.375ZM50.7656 356.133L22.9219 441H0.492188L38.5312 338.625H52.8047L50.7656 356.133ZM73.8984 441L45.9844 356.133L43.7344 338.625H58.1484L96.3984 441H73.8984ZM72.6328 402.891V419.414H18.5625V402.891H72.6328ZM68.4844 576.039H89.5078C89.0859 582.93 87.1875 589.047 83.8125 594.391C80.4844 599.734 75.8203 603.906 69.8203 606.906C63.8672 609.906 56.6953 611.406 48.3047 611.406C41.7422 611.406 35.8594 610.281 30.6562 608.031C25.4531 605.734 21 602.453 17.2969 598.188C13.6406 593.922 10.8516 588.766 8.92969 582.719C7.00781 576.672 6.04688 569.898 6.04688 562.398V555.297C6.04688 547.797 7.03125 541.023 9 534.977C11.0156 528.883 13.875 523.703 17.5781 519.438C21.3281 515.172 25.8047 511.891 31.0078 509.594C36.2109 507.297 42.0234 506.148 48.4453 506.148C56.9766 506.148 64.1719 507.695 70.0312 510.789C75.9375 513.883 80.5078 518.148 83.7422 523.586C87.0234 529.023 88.9922 535.211 89.6484 542.148H68.5547C68.3203 538.023 67.5 534.531 66.0938 531.672C64.6875 528.766 62.5547 526.586 59.6953 525.133C56.8828 523.633 53.1328 522.883 48.4453 522.883C44.9297 522.883 41.8594 523.539 39.2344 524.852C36.6094 526.164 34.4062 528.156 32.625 530.828C30.8438 533.5 29.5078 536.875 28.6172 540.953C27.7734 544.984 27.3516 549.719 27.3516 555.156V562.398C27.3516 567.695 27.75 572.359 28.5469 576.391C29.3438 580.375 30.5625 583.75 32.2031 586.516C33.8906 589.234 36.0469 591.297 38.6719 592.703C41.3438 594.062 44.5547 594.742 48.3047 594.742C52.7109 594.742 56.3438 594.039 59.2031 592.633C62.0625 591.227 64.2422 589.141 65.7422 586.375C67.2891 583.609 68.2031 580.164 68.4844 576.039ZM30.2344 676.625V779H9.14062V676.625H30.2344ZM91.5469 676.625L50.9766 727.18L27.5625 752.352L23.7656 732.383L39.5859 710.727L65.6719 676.625H91.5469ZM67.5703 779L37.4062 731.68L53.0156 718.602L92.5312 779H67.5703ZM62.4375 921.211C62.4375 919.383 62.1562 917.742 61.5938 916.289C61.0781 914.789 60.0938 913.43 58.6406 912.211C57.1875 910.945 55.1484 909.703 52.5234 908.484C49.8984 907.266 46.5 906 42.3281 904.688C37.6875 903.188 33.2812 901.5 29.1094 899.625C24.9844 897.75 21.3281 895.57 18.1406 893.086C15 890.555 12.5156 887.625 10.6875 884.297C8.90625 880.969 8.01562 877.102 8.01562 872.695C8.01562 868.43 8.95312 864.562 10.8281 861.094C12.7031 857.578 15.3281 854.578 18.7031 852.094C22.0781 849.562 26.0625 847.617 30.6562 846.258C35.2969 844.898 40.3828 844.219 45.9141 844.219C53.4609 844.219 60.0469 845.578 65.6719 848.297C71.2969 851.016 75.6562 854.742 78.75 859.477C81.8906 864.211 83.4609 869.625 83.4609 875.719H62.5078C62.5078 872.719 61.875 870.094 60.6094 867.844C59.3906 865.547 57.5156 863.742 54.9844 862.43C52.5 861.117 49.3594 860.461 45.5625 860.461C41.9062 860.461 38.8594 861.023 36.4219 862.148C33.9844 863.227 32.1562 864.703 30.9375 866.578C29.7188 868.406 29.1094 870.469 29.1094 872.766C29.1094 874.5 29.5312 876.07 30.375 877.477C31.2656 878.883 32.5781 880.195 34.3125 881.414C36.0469 882.633 38.1797 883.781 40.7109 884.859C43.2422 885.938 46.1719 886.992 49.5 888.023C55.0781 889.711 59.9766 891.609 64.1953 893.719C68.4609 895.828 72.0234 898.195 74.8828 900.82C77.7422 903.445 79.8984 906.422 81.3516 909.75C82.8047 913.078 83.5312 916.852 83.5312 921.07C83.5312 925.523 82.6641 929.508 80.9297 933.023C79.1953 936.539 76.6875 939.516 73.4062 941.953C70.125 944.391 66.2109 946.242 61.6641 947.508C57.1172 948.773 52.0312 949.406 46.4062 949.406C41.3438 949.406 36.3516 948.75 31.4297 947.438C26.5078 946.078 22.0312 944.039 18 941.32C14.0156 938.602 10.8281 935.133 8.4375 930.914C6.04688 926.695 4.85156 921.703 4.85156 915.938H26.0156C26.0156 919.125 26.5078 921.82 27.4922 924.023C28.4766 926.227 29.8594 928.008 31.6406 929.367C33.4688 930.727 35.625 931.711 38.1094 932.32C40.6406 932.93 43.4062 933.234 46.4062 933.234C50.0625 933.234 53.0625 932.719 55.4062 931.688C57.7969 930.656 59.5547 929.227 60.6797 927.398C61.8516 925.57 62.4375 923.508 62.4375 921.211Z" fill="url(#paint0_linear_175_34)"/>
<defs>
<linearGradient id="paint0_linear_175_34" x1="70.5" y1="-31" x2="70.5" y2="845" gradientUnits="userSpaceOnUse">
<stop stop-color="#42C6E4"/>
<stop offset="0.973958" stop-color="#84CB83"/>
</linearGradient>
</defs>
</svg>
