<svg width="185" height="1023" viewBox="0 0 185 1023" fill="none" xmlns="http://www.w3.org/2000/svg">
<g filter="url(#filter0_bdd_168_15)">
<path d="M7.375 927.477H178V962.516H7.375V927.477ZM7.375 874.977H34.9141L34.9141 1014.2H7.375L7.375 874.977ZM7.375 833.338V769.705C7.375 756.658 9.32812 745.447 13.2344 736.072C17.1406 726.619 22.9219 719.353 30.5781 714.275C38.2344 709.197 47.6484 706.658 58.8203 706.658C67.9609 706.658 75.8125 708.22 82.375 711.345C88.8594 714.392 94.2891 718.728 98.6641 724.353C102.961 729.9 106.398 736.423 108.977 743.923L114.836 755.056L114.836 810.369L87.4141 810.603L87.4141 769.47C87.4141 763.298 86.3203 758.181 84.1328 754.119C81.9453 750.056 78.8984 747.009 74.9922 744.978C71.0859 742.869 66.5547 741.814 61.3984 741.814C55.9297 741.814 51.2031 742.83 47.2187 744.861C43.2344 746.892 40.1875 749.978 38.0781 754.119C35.9687 758.259 34.9141 763.455 34.9141 769.705V798.181H178L178 833.338H7.375ZM178 737.947L101.945 776.853L101.711 739.705L176.359 700.33H178V737.947ZM36.5547 588.613L178 635.019V672.402L7.375 609.003V585.214L36.5547 588.613ZM178 550.058L36.5547 596.581L7.375 600.331V576.308L178 512.558V550.058ZM114.484 552.167H142.023V642.284H114.484V552.167ZM121.398 378.341L121.398 343.302C132.883 344.005 143.078 347.169 151.984 352.794C160.891 358.341 167.844 366.114 172.844 376.114C177.844 386.036 180.344 397.989 180.344 411.973C180.344 422.911 178.469 432.716 174.719 441.388C170.891 450.059 165.422 457.481 158.312 463.653C151.203 469.747 142.609 474.395 132.531 477.598C122.453 480.802 111.164 482.403 98.6641 482.403H86.8281C74.3281 482.403 63.0391 480.763 52.9609 477.481C42.8047 474.122 34.1719 469.356 27.0625 463.184C19.9531 456.934 14.4844 449.473 10.6562 440.802C6.82812 432.13 4.91406 422.442 4.91406 411.739C4.91406 397.52 7.49218 385.528 12.6484 375.763C17.8047 365.919 24.9141 358.302 33.9766 352.911C43.0391 347.442 53.3516 344.161 64.9141 343.067V378.223C58.0391 378.614 52.2187 379.981 47.4531 382.325C42.6094 384.669 38.9766 388.223 36.5547 392.989C34.0547 397.677 32.8047 403.927 32.8047 411.739C32.8047 417.598 33.8984 422.716 36.0859 427.091C38.2734 431.466 41.5937 435.138 46.0469 438.106C50.5 441.075 56.125 443.302 62.9219 444.786C69.6406 446.192 77.5312 446.895 86.5937 446.895H98.6641C107.492 446.895 115.266 446.231 121.984 444.903C128.625 443.575 134.25 441.544 138.859 438.809C143.391 435.997 146.828 432.403 149.172 428.028C151.437 423.575 152.57 418.223 152.57 411.973C152.57 404.63 151.398 398.575 149.055 393.809C146.711 389.044 143.234 385.411 138.625 382.911C134.016 380.333 128.273 378.809 121.398 378.341ZM7.375 263.459H178V298.616H7.375V263.459ZM7.375 161.272L91.6328 228.889L133.586 267.913L100.305 274.241L64.2109 247.873L7.375 204.397V161.272ZM178 201.233L99.1328 251.506L77.3359 225.491L178 159.631V201.233ZM133.352 35.6094C130.305 35.6094 127.57 36.0782 125.148 37.0157C122.648 37.8751 120.383 39.5157 118.352 41.9376C116.242 44.3594 114.172 47.7579 112.141 52.1329C110.109 56.5079 108 62.1719 105.812 69.1251C103.312 76.8594 100.5 84.2032 97.375 91.1563C94.25 98.0313 90.6172 104.125 86.4766 109.438C82.2578 114.672 77.375 118.813 71.8281 121.859C66.2812 124.828 59.8359 126.313 52.4922 126.313C45.3828 126.313 38.9375 124.75 33.1562 121.625C27.2969 118.5 22.2969 114.125 18.1562 108.5C13.9375 102.875 10.6953 96.2344 8.42968 88.5782C6.16406 80.8438 5.03125 72.3672 5.03125 63.1485C5.03125 50.5704 7.29687 39.5938 11.8281 30.2188C16.3594 20.8438 22.5703 13.5782 30.4609 8.42194C38.3516 3.18756 47.375 0.570373 57.5312 0.570373V35.4922C52.5312 35.4922 48.1562 36.5469 44.4062 38.6563C40.5781 40.6876 37.5703 43.8126 35.3828 48.0313C33.1953 52.1719 32.1016 57.4063 32.1016 63.7344C32.1016 69.8282 33.0391 74.9063 34.9141 78.9688C36.7109 83.0313 39.1719 86.0782 42.2969 88.1094C45.3437 90.1407 48.7812 91.1563 52.6094 91.1563C55.5 91.1563 58.1172 90.4532 60.4609 89.0469C62.8047 87.5626 64.9922 85.3751 67.0234 82.4844C69.0547 79.5938 70.9687 76.0391 72.7656 71.8204C74.5625 67.6016 76.3203 62.7188 78.0391 57.1719C80.8516 47.8751 84.0156 39.711 87.5312 32.6797C91.0469 25.5704 94.9922 19.6329 99.3672 14.8672C103.742 10.1016 108.703 6.50787 114.25 4.086C119.797 1.66412 126.086 0.453186 133.117 0.453186C140.539 0.453186 147.18 1.8985 153.039 4.78912C158.898 7.67975 163.859 11.8594 167.922 17.3282C171.984 22.7969 175.07 29.3204 177.18 36.8985C179.289 44.4766 180.344 52.9532 180.344 62.3282C180.344 70.7657 179.25 79.086 177.062 87.2891C174.797 95.4922 171.398 102.953 166.867 109.672C162.336 116.313 156.555 121.625 149.523 125.609C142.492 129.594 134.172 131.586 124.562 131.586V96.3126C129.875 96.3126 134.367 95.4922 138.039 93.8516C141.711 92.211 144.68 89.9063 146.945 86.9376C149.211 83.8907 150.852 80.2969 151.867 76.1563C152.883 71.9376 153.391 67.3282 153.391 62.3282C153.391 56.2344 152.531 51.2344 150.812 47.3282C149.094 43.3438 146.711 40.4141 143.664 38.5391C140.617 36.586 137.18 35.6094 133.352 35.6094Z" fill="url(#paint0_linear_168_15)"/>
</g>
<defs>
<filter id="filter0_bdd_168_15" x="0.914062" y="-3.54688" width="183.43" height="1025.74" filterUnits="userSpaceOnUse" color-interpolation-filters="sRGB">
<feFlood flood-opacity="0" result="BackgroundImageFix"/>
<feGaussianBlur in="BackgroundImage" stdDeviation="2"/>
<feComposite in2="SourceAlpha" operator="in" result="effect1_backgroundBlur_168_15"/>
<feColorMatrix in="SourceAlpha" type="matrix" values="0 0 0 0 0 0 0 0 0 0 0 0 0 0 0 0 0 0 127 0" result="hardAlpha"/>
<feOffset dy="4"/>
<feGaussianBlur stdDeviation="2"/>
<feComposite in2="hardAlpha" operator="out"/>
<feColorMatrix type="matrix" values="0 0 0 0 0 0 0 0 0 0 0 0 0 0 0 0 0 0 0.25 0"/>
<feBlend mode="normal" in2="effect1_backgroundBlur_168_15" result="effect2_dropShadow_168_15"/>
<feColorMatrix in="SourceAlpha" type="matrix" values="0 0 0 0 0 0 0 0 0 0 0 0 0 0 0 0 0 0 127 0" result="hardAlpha"/>
<feOffset dy="4"/>
<feGaussianBlur stdDeviation="2"/>
<feComposite in2="hardAlpha" operator="out"/>
<feColorMatrix type="matrix" values="0 0 0 0 0 0 0 0 0 0 0 0 0 0 0 0 0 0 0.25 0"/>
<feBlend mode="normal" in2="effect2_dropShadow_168_15" result="effect3_dropShadow_168_15"/>
<feBlend mode="normal" in="SourceGraphic" in2="effect3_dropShadow_168_15" result="shape"/>
</filter>
<linearGradient id="paint0_linear_168_15" x1="250" y1="972" x2="248.5" y2="234" gradientUnits="userSpaceOnUse">
<stop stop-color="#84CB83"/>
<stop offset="1" stop-color="#42C6E4"/>
</linearGradient>
</defs>
</svg>
